<?xml version="1.0" encoding="utf-8"?>
<!-- Generator: Adobe Illustrator 28.2.0, SVG Export Plug-In . SVG Version: 6.00 Build 0)  -->
<svg version="1.1" id="Layer_1" xmlns="http://www.w3.org/2000/svg" xmlns:xlink="http://www.w3.org/1999/xlink" x="0px" y="0px"
	 viewBox="0 0 919.1 133.2" style="enable-background:new 0 0 919.1 133.2;" xml:space="preserve">
<path d="M765.5,74.3c1.4-12.8,10.6-19.3,22-19.3c12.1,0,20.9,7.4,21.4,19.3H765.5z M787.5,133.2c23.6,0,41-13,44.3-30.6H808
	c-4,7.4-10.4,11.7-19.8,11.7c-13,0-22-8.5-22.9-23.2h67.9v-6.7c0-28.6-17.5-48.2-45.7-48.2c-28.1,0-47,19.6-47,48.4
	C740.5,113.8,758.9,133.2,787.5,133.2z M466.7,74.3c1.4-12.8,10.6-19.3,22-19.3c12.1,0,20.9,7.4,21.4,19.3H466.7z M247.5,114.3
	c-14.4,0-22.9-11.7-22.9-29.7s8.5-29.7,22.9-29.7s22.9,11.7,22.9,29.7S261.9,114.3,247.5,114.3z M554.6,129.6l19.3-30.1l18.5,30.1
	h29.5l-33.5-46.8l30.8-43.2h-29.5L573.1,67l-17.3-27.4H526l32.8,44.1l-34,45.9H554.6z M705.2,129.6v-90h-23.9v90H705.2z
	 M488.7,133.2c23.6,0,41-13,44.3-30.6h-23.8c-4,7.4-10.4,11.7-19.8,11.7c-13,0-22-8.5-22.9-23.2h67.9v-6.7
	c0-28.6-17.5-48.2-45.7-48.2c-28.1,0-47,19.6-47,48.4C441.7,113.8,460.1,133.2,488.7,133.2z M878.6,133.2
	c24.7,0,40.5-12.1,40.5-30.1c0-15.3-10.3-24.3-29-27.9L872.8,72c-6.5-1.3-9.7-4.3-9.7-9c0-5.8,5.4-9.7,14.2-9.7s15.1,4.3,16.7,11.5
	h23c-1.6-18-16.4-28.8-39.8-28.8c-22.3,0-38,11.5-38,28.1c0,14.8,9.4,24.1,27,27.5l16.7,3.2c7.2,1.4,11.2,4.5,11.2,9.5
	c0,6.5-5.8,10.8-15.5,10.8c-10.6,0-17.3-5-18.5-13.7h-23.9C837.5,120.1,851.9,133.2,878.6,133.2z M247.5,133.2
	c27.5,0,47.7-20.5,47.7-48.6S275,36,247.5,36s-47.7,20.5-47.7,48.6S220,133.2,247.5,133.2z M112.5,129.6h23.9V79.2
	c0-12.4,7.7-21.2,18.5-21.2c8.8,0,16.4,6.1,16.4,16.6v55.1h23.9V68.4c0-19.1-13.3-32.4-32.2-32.4c-10.8,0-19.8,4.3-26.8,13.1v-9.5
	h-23.8V129.6z M675,129.6v-19.8h-9.5c-7.2,0-9.4-3.4-9.4-9V58.7H675V39.6h-18.9V14h-23.9v25.6H621v19.1h11.2v46.6
	c0,16.4,8.1,24.3,24.8,24.3H675z M433.6,129.6V25.2h37.3V3.6h-99v21.6h37.3v104.4H433.6z M712.1,129.6H736V3.6h-23.9V129.6z
	 M329.9,129.6h23.9V3.6h-23.9V129.6z M299.7,129.6h23.9V3.6h-23.9V129.6z M0,129.6h24.5v-45l13.3-13.5l38.7,58.5H108l-52.6-76
	l48.6-50H70.9L24.5,51.5V3.6H0V129.6z M693.4,27.9c7.9,0,14.2-6.3,14.2-13.9c0-7.9-6.3-14-14.2-14C685.3,0,679,6.1,679,14
	C679,21.6,685.3,27.9,693.4,27.9z"/>
</svg>
